<mxfile host="app.diagrams.net" modified="2022-02-24T00:33:18.326Z" agent="5.0 (Windows NT 10.0; Win64; x64) AppleWebKit/537.36 (KHTML, like Gecko) Chrome/96.0.4664.45 Safari/537.36" etag="-WKh6nyO9BnKTdYcEEgH" version="16.2.6" type="github">
  <diagram id="42q5yrAbg_uipcMJJwmL" name="Page-1">
    <mxGraphModel dx="2277" dy="-377" grid="1" gridSize="10" guides="1" tooltips="1" connect="1" arrows="1" fold="1" page="1" pageScale="1" pageWidth="1169" pageHeight="827" math="0" shadow="0">
      <root>
        <mxCell id="0" />
        <mxCell id="1" parent="0" />
        <mxCell id="MQpAyLM7WQvq7NCeplu3-181" value="" style="rounded=0;whiteSpace=wrap;html=1;fontSize=14;strokeColor=#FFFFFF;fillColor=#97D077;" vertex="1" parent="1">
          <mxGeometry x="-200" y="870" width="830" height="626" as="geometry" />
        </mxCell>
        <mxCell id="MQpAyLM7WQvq7NCeplu3-182" value="" style="rounded=0;whiteSpace=wrap;html=1;fontSize=14;strokeColor=#FFFFFF;fillColor=#FFFFFF;" vertex="1" parent="1">
          <mxGeometry x="-17.91" y="870" width="195" height="490" as="geometry" />
        </mxCell>
        <mxCell id="MQpAyLM7WQvq7NCeplu3-225" value="" style="rounded=0;whiteSpace=wrap;html=1;fontSize=14;strokeColor=#000000;fillColor=#FFFFFF;" vertex="1" parent="1">
          <mxGeometry x="9.88" y="891.38" width="150" height="430" as="geometry" />
        </mxCell>
        <mxCell id="MQpAyLM7WQvq7NCeplu3-221" value="" style="rounded=0;whiteSpace=wrap;html=1;fontSize=14;strokeColor=#33FFFF;fillColor=#97D077;" vertex="1" parent="1">
          <mxGeometry x="388.76" y="1229.25" width="180" height="60.5" as="geometry" />
        </mxCell>
        <mxCell id="MQpAyLM7WQvq7NCeplu3-220" value="" style="rounded=0;whiteSpace=wrap;html=1;fontSize=14;strokeColor=#33FFFF;fillColor=#97D077;" vertex="1" parent="1">
          <mxGeometry x="388.76" y="1153" width="180" height="60.5" as="geometry" />
        </mxCell>
        <mxCell id="MQpAyLM7WQvq7NCeplu3-109" value="" style="rounded=0;whiteSpace=wrap;html=1;fontSize=14;strokeColor=#33FFFF;fillColor=#97D077;" vertex="1" parent="1">
          <mxGeometry x="390" y="1079.5" width="180" height="60.5" as="geometry" />
        </mxCell>
        <mxCell id="MQpAyLM7WQvq7NCeplu3-48" value="" style="rounded=0;whiteSpace=wrap;html=1;strokeColor=#33FFFF;fillColor=#97D077;" vertex="1" parent="1">
          <mxGeometry x="32.5" y="1189.5" width="100" height="120" as="geometry" />
        </mxCell>
        <mxCell id="MQpAyLM7WQvq7NCeplu3-41" value="" style="rounded=0;whiteSpace=wrap;html=1;" vertex="1" parent="1">
          <mxGeometry x="-105" y="876" width="80" height="494" as="geometry" />
        </mxCell>
        <mxCell id="MQpAyLM7WQvq7NCeplu3-40" value="" style="rounded=0;whiteSpace=wrap;html=1;" vertex="1" parent="1">
          <mxGeometry x="-179.62" y="872" width="60.25" height="498" as="geometry" />
        </mxCell>
        <mxCell id="MQpAyLM7WQvq7NCeplu3-72" value="" style="edgeStyle=orthogonalEdgeStyle;rounded=0;orthogonalLoop=1;jettySize=auto;html=1;fontSize=14;" edge="1" parent="1">
          <mxGeometry relative="1" as="geometry">
            <mxPoint x="-240" y="1140" as="sourcePoint" />
            <mxPoint x="-180" y="1140" as="targetPoint" />
            <Array as="points">
              <mxPoint x="-230" y="1140" />
              <mxPoint x="-230" y="1140" />
            </Array>
          </mxGeometry>
        </mxCell>
        <mxCell id="MQpAyLM7WQvq7NCeplu3-11" value="" style="rounded=0;whiteSpace=wrap;html=1;fillColor=#97D077;rotation=90;" vertex="1" parent="1">
          <mxGeometry x="-696.25" y="1192.75" width="792.5" height="123" as="geometry" />
        </mxCell>
        <mxCell id="MQpAyLM7WQvq7NCeplu3-1" value="" style="sketch=0;aspect=fixed;html=1;points=[];align=center;image;fontSize=12;image=img/lib/mscae/Cache_Redis_Product.svg;" vertex="1" parent="1">
          <mxGeometry x="453.2" y="1092.75" width="32.44" height="27.25" as="geometry" />
        </mxCell>
        <mxCell id="MQpAyLM7WQvq7NCeplu3-3" value="" style="sketch=0;aspect=fixed;html=1;points=[];align=center;image;fontSize=12;image=img/lib/mscae/Cache_Redis_Product.svg;" vertex="1" parent="1">
          <mxGeometry x="502.86" y="1110.5" width="32.14" height="27" as="geometry" />
        </mxCell>
        <mxCell id="MQpAyLM7WQvq7NCeplu3-5" value="" style="sketch=0;aspect=fixed;html=1;points=[];align=center;image;fontSize=12;image=img/lib/mscae/Kubernetes.svg;" vertex="1" parent="1">
          <mxGeometry x="9.17" y="1328" width="33.33" height="32" as="geometry" />
        </mxCell>
        <mxCell id="MQpAyLM7WQvq7NCeplu3-6" value="" style="sketch=0;aspect=fixed;pointerEvents=1;shadow=0;dashed=0;html=1;strokeColor=none;labelPosition=center;verticalLabelPosition=bottom;verticalAlign=top;align=center;fillColor=#00188D;shape=mxgraph.mscae.enterprise.android_phone" vertex="1" parent="1">
          <mxGeometry x="-315" y="1070" width="30" height="50" as="geometry" />
        </mxCell>
        <mxCell id="MQpAyLM7WQvq7NCeplu3-7" value="" style="sketch=0;aspect=fixed;pointerEvents=1;shadow=0;dashed=0;html=1;strokeColor=none;labelPosition=center;verticalLabelPosition=bottom;verticalAlign=top;align=center;fillColor=#00188D;shape=mxgraph.mscae.enterprise.application" vertex="1" parent="1">
          <mxGeometry x="-325" y="1224" width="50" height="34" as="geometry" />
        </mxCell>
        <mxCell id="MQpAyLM7WQvq7NCeplu3-8" value="" style="sketch=0;aspect=fixed;pointerEvents=1;shadow=0;dashed=0;html=1;strokeColor=none;labelPosition=center;verticalLabelPosition=bottom;verticalAlign=top;align=center;fillColor=#00188D;shape=mxgraph.mscae.enterprise.internet" vertex="1" parent="1">
          <mxGeometry x="-325" y="1360" width="50" height="31" as="geometry" />
        </mxCell>
        <mxCell id="MQpAyLM7WQvq7NCeplu3-9" value="" style="sketch=0;aspect=fixed;pointerEvents=1;shadow=0;dashed=0;html=1;strokeColor=none;labelPosition=center;verticalLabelPosition=bottom;verticalAlign=top;align=center;fillColor=#00188D;shape=mxgraph.azure.laptop" vertex="1" parent="1">
          <mxGeometry x="-325" y="927" width="50" height="30" as="geometry" />
        </mxCell>
        <mxCell id="MQpAyLM7WQvq7NCeplu3-12" value="" style="sketch=0;aspect=fixed;html=1;points=[];align=center;image;fontSize=12;image=img/lib/mscae/Azure_Database_for_MySQL_servers.svg;" vertex="1" parent="1">
          <mxGeometry x="407.1" y="1162" width="32.3" height="42.5" as="geometry" />
        </mxCell>
        <mxCell id="MQpAyLM7WQvq7NCeplu3-31" value="SLB" style="text;html=1;strokeColor=none;fillColor=none;align=center;verticalAlign=middle;whiteSpace=wrap;rounded=0;" vertex="1" parent="1">
          <mxGeometry x="-95" y="1147.5" width="60" height="30" as="geometry" />
        </mxCell>
        <mxCell id="MQpAyLM7WQvq7NCeplu3-36" value="" style="aspect=fixed;html=1;points=[];align=center;image;fontSize=12;image=img/lib/azure2/networking/Web_Application_Firewall_Policies_WAF.svg;" vertex="1" parent="1">
          <mxGeometry x="-169.25" y="1106" width="39" height="39" as="geometry" />
        </mxCell>
        <mxCell id="MQpAyLM7WQvq7NCeplu3-37" value="" style="shape=mxgraph.cisco.misc.ios_slb;html=1;pointerEvents=1;dashed=0;fillColor=#036897;strokeColor=#ffffff;strokeWidth=2;verticalLabelPosition=bottom;verticalAlign=top;align=center;outlineConnect=0;" vertex="1" parent="1">
          <mxGeometry x="-90" y="1110.5" width="50" height="30" as="geometry" />
        </mxCell>
        <mxCell id="MQpAyLM7WQvq7NCeplu3-38" value="WAF" style="text;html=1;strokeColor=none;fillColor=none;align=center;verticalAlign=middle;whiteSpace=wrap;rounded=0;" vertex="1" parent="1">
          <mxGeometry x="-179.75" y="1145" width="60" height="30" as="geometry" />
        </mxCell>
        <mxCell id="MQpAyLM7WQvq7NCeplu3-44" value="" style="rounded=0;whiteSpace=wrap;html=1;strokeColor=#33FFFF;fillColor=#33FFFF;" vertex="1" parent="1">
          <mxGeometry x="640" y="857.25" width="330" height="782.75" as="geometry" />
        </mxCell>
        <mxCell id="MQpAyLM7WQvq7NCeplu3-45" value="APP2" style="ellipse;whiteSpace=wrap;html=1;" vertex="1" parent="1">
          <mxGeometry x="42.75" y="1224" width="79.5" height="39" as="geometry" />
        </mxCell>
        <mxCell id="MQpAyLM7WQvq7NCeplu3-52" value="" style="rounded=0;whiteSpace=wrap;html=1;strokeColor=#33FFFF;fillColor=#97D077;" vertex="1" parent="1">
          <mxGeometry x="30" y="900" width="105" height="141.75" as="geometry" />
        </mxCell>
        <mxCell id="MQpAyLM7WQvq7NCeplu3-53" value="APP1" style="ellipse;whiteSpace=wrap;html=1;" vertex="1" parent="1">
          <mxGeometry x="52.5" y="942.5" width="67.5" height="42" as="geometry" />
        </mxCell>
        <mxCell id="MQpAyLM7WQvq7NCeplu3-54" value="&lt;font style=&quot;font-size: 14px&quot;&gt;pod&lt;/font&gt;" style="text;html=1;strokeColor=none;fillColor=none;align=center;verticalAlign=middle;whiteSpace=wrap;rounded=0;" vertex="1" parent="1">
          <mxGeometry x="42.5" y="901.5" width="60" height="30" as="geometry" />
        </mxCell>
        <mxCell id="MQpAyLM7WQvq7NCeplu3-57" value="&lt;font style=&quot;font-size: 14px&quot;&gt;pod&lt;/font&gt;" style="text;html=1;strokeColor=none;fillColor=none;align=center;verticalAlign=middle;whiteSpace=wrap;rounded=0;" vertex="1" parent="1">
          <mxGeometry x="42.5" y="1189.5" width="60" height="30" as="geometry" />
        </mxCell>
        <mxCell id="MQpAyLM7WQvq7NCeplu3-62" value="" style="sketch=0;aspect=fixed;html=1;points=[];align=center;image;fontSize=12;image=img/lib/mscae/Azure_Database_for_MySQL_servers.svg;" vertex="1" parent="1">
          <mxGeometry x="520" y="1163" width="30.78" height="40.5" as="geometry" />
        </mxCell>
        <mxCell id="MQpAyLM7WQvq7NCeplu3-66" value="" style="outlineConnect=0;dashed=0;verticalLabelPosition=bottom;verticalAlign=top;align=center;html=1;shape=mxgraph.aws3.mqtt_protocol;fillColor=#5294CF;gradientColor=none;fontSize=14;strokeColor=#33FFFF;" vertex="1" parent="1">
          <mxGeometry x="455.13" y="1232" width="42.75" height="31" as="geometry" />
        </mxCell>
        <mxCell id="MQpAyLM7WQvq7NCeplu3-77" value="" style="rounded=0;whiteSpace=wrap;html=1;fontSize=14;strokeColor=#33FFFF;fillColor=#97D077;" vertex="1" parent="1">
          <mxGeometry x="388.76" y="897" width="181.24" height="60" as="geometry" />
        </mxCell>
        <mxCell id="MQpAyLM7WQvq7NCeplu3-79" value="" style="sketch=0;points=[[0,0,0],[0.25,0,0],[0.5,0,0],[0.75,0,0],[1,0,0],[0,1,0],[0.25,1,0],[0.5,1,0],[0.75,1,0],[1,1,0],[0,0.25,0],[0,0.5,0],[0,0.75,0],[1,0.25,0],[1,0.5,0],[1,0.75,0]];outlineConnect=0;fontColor=#232F3E;gradientColor=#4AB29A;gradientDirection=north;fillColor=#116D5B;strokeColor=#ffffff;dashed=0;verticalLabelPosition=bottom;verticalAlign=top;align=center;html=1;fontSize=12;fontStyle=0;aspect=fixed;shape=mxgraph.aws4.resourceIcon;resIcon=mxgraph.aws4.application_discovery_service;" vertex="1" parent="1">
          <mxGeometry x="502.49999999999994" y="924.5" width="32.5" height="32.5" as="geometry" />
        </mxCell>
        <mxCell id="MQpAyLM7WQvq7NCeplu3-87" value="" style="rounded=0;whiteSpace=wrap;html=1;fontSize=14;strokeColor=#33FFFF;fillColor=#97D077;" vertex="1" parent="1">
          <mxGeometry x="390" y="960" width="180" height="50" as="geometry" />
        </mxCell>
        <mxCell id="MQpAyLM7WQvq7NCeplu3-91" value="sentinel" style="text;html=1;strokeColor=none;fillColor=none;align=center;verticalAlign=middle;whiteSpace=wrap;rounded=0;fontSize=14;" vertex="1" parent="1">
          <mxGeometry x="395" y="980" width="56.5" height="10" as="geometry" />
        </mxCell>
        <mxCell id="MQpAyLM7WQvq7NCeplu3-92" value="" style="sketch=0;aspect=fixed;html=1;points=[];align=center;image;fontSize=12;image=img/lib/mscae/Azure_Sentinel.svg;strokeColor=#33FFFF;fillColor=#97D077;" vertex="1" parent="1">
          <mxGeometry x="458.9" y="978" width="26.4" height="30" as="geometry" />
        </mxCell>
        <mxCell id="MQpAyLM7WQvq7NCeplu3-111" value="" style="endArrow=classic;html=1;rounded=0;fontSize=14;exitX=-0.026;exitY=0.49;exitDx=0;exitDy=0;exitPerimeter=0;" edge="1" parent="1" source="MQpAyLM7WQvq7NCeplu3-62" target="MQpAyLM7WQvq7NCeplu3-12">
          <mxGeometry width="50" height="50" relative="1" as="geometry">
            <mxPoint x="493" y="1400" as="sourcePoint" />
            <mxPoint x="543" y="1350" as="targetPoint" />
          </mxGeometry>
        </mxCell>
        <mxCell id="MQpAyLM7WQvq7NCeplu3-162" value="replica" style="edgeLabel;html=1;align=center;verticalAlign=middle;resizable=0;points=[];fontSize=14;" vertex="1" connectable="0" parent="MQpAyLM7WQvq7NCeplu3-111">
          <mxGeometry x="-0.3889" y="-2" relative="1" as="geometry">
            <mxPoint x="-15" y="2" as="offset" />
          </mxGeometry>
        </mxCell>
        <mxCell id="MQpAyLM7WQvq7NCeplu3-132" value="" style="endArrow=classic;html=1;rounded=0;fontSize=14;startArrow=none;" edge="1" parent="1" source="MQpAyLM7WQvq7NCeplu3-191" target="MQpAyLM7WQvq7NCeplu3-48">
          <mxGeometry width="50" height="50" relative="1" as="geometry">
            <mxPoint x="90" y="1050" as="sourcePoint" />
            <mxPoint x="250" y="1100" as="targetPoint" />
            <Array as="points" />
          </mxGeometry>
        </mxCell>
        <mxCell id="MQpAyLM7WQvq7NCeplu3-140" value="" style="endArrow=classic;html=1;rounded=0;fontSize=14;exitX=1.013;exitY=0.049;exitDx=0;exitDy=0;exitPerimeter=0;entryX=0;entryY=0.25;entryDx=0;entryDy=0;" edge="1" parent="1" source="MQpAyLM7WQvq7NCeplu3-225" target="MQpAyLM7WQvq7NCeplu3-172">
          <mxGeometry width="50" height="50" relative="1" as="geometry">
            <mxPoint x="200" y="1050" as="sourcePoint" />
            <mxPoint x="390" y="950" as="targetPoint" />
          </mxGeometry>
        </mxCell>
        <mxCell id="MQpAyLM7WQvq7NCeplu3-144" value="服务注册/发现" style="edgeLabel;html=1;align=center;verticalAlign=middle;resizable=0;points=[];fontSize=14;" vertex="1" connectable="0" parent="MQpAyLM7WQvq7NCeplu3-140">
          <mxGeometry x="-0.0929" y="1" relative="1" as="geometry">
            <mxPoint x="29" y="-10" as="offset" />
          </mxGeometry>
        </mxCell>
        <mxCell id="MQpAyLM7WQvq7NCeplu3-141" value="" style="endArrow=classic;html=1;rounded=0;fontSize=14;startArrow=none;" edge="1" parent="1">
          <mxGeometry width="50" height="50" relative="1" as="geometry">
            <mxPoint x="170" y="934" as="sourcePoint" />
            <mxPoint x="388.76" y="934" as="targetPoint" />
            <Array as="points" />
          </mxGeometry>
        </mxCell>
        <mxCell id="MQpAyLM7WQvq7NCeplu3-145" value="配置读取" style="edgeLabel;html=1;align=center;verticalAlign=middle;resizable=0;points=[];fontSize=14;" vertex="1" connectable="0" parent="MQpAyLM7WQvq7NCeplu3-141">
          <mxGeometry x="-0.1294" y="-1" relative="1" as="geometry">
            <mxPoint x="22" y="-10" as="offset" />
          </mxGeometry>
        </mxCell>
        <mxCell id="MQpAyLM7WQvq7NCeplu3-148" value="" style="endArrow=classic;html=1;rounded=0;fontSize=14;entryX=0;entryY=0.75;entryDx=0;entryDy=0;" edge="1" parent="1" target="MQpAyLM7WQvq7NCeplu3-87">
          <mxGeometry width="50" height="50" relative="1" as="geometry">
            <mxPoint x="140" y="1000" as="sourcePoint" />
            <mxPoint x="172.25" y="1196.5" as="targetPoint" />
            <Array as="points">
              <mxPoint x="140" y="1000" />
            </Array>
          </mxGeometry>
        </mxCell>
        <mxCell id="MQpAyLM7WQvq7NCeplu3-152" value="上报统计结果" style="edgeLabel;html=1;align=center;verticalAlign=middle;resizable=0;points=[];fontSize=14;" vertex="1" connectable="0" parent="MQpAyLM7WQvq7NCeplu3-148">
          <mxGeometry x="0.0672" y="3" relative="1" as="geometry">
            <mxPoint x="7" y="-6" as="offset" />
          </mxGeometry>
        </mxCell>
        <mxCell id="MQpAyLM7WQvq7NCeplu3-155" value="" style="endArrow=classic;html=1;rounded=0;fontSize=14;exitX=0;exitY=0.25;exitDx=0;exitDy=0;" edge="1" parent="1">
          <mxGeometry width="50" height="50" relative="1" as="geometry">
            <mxPoint x="390" y="970" as="sourcePoint" />
            <mxPoint x="160" y="970" as="targetPoint" />
            <Array as="points" />
          </mxGeometry>
        </mxCell>
        <mxCell id="MQpAyLM7WQvq7NCeplu3-156" value="读取限流降级规则" style="edgeLabel;html=1;align=center;verticalAlign=middle;resizable=0;points=[];fontSize=14;" vertex="1" connectable="0" parent="MQpAyLM7WQvq7NCeplu3-155">
          <mxGeometry x="0.0756" y="-1" relative="1" as="geometry">
            <mxPoint x="39" y="-9" as="offset" />
          </mxGeometry>
        </mxCell>
        <mxCell id="MQpAyLM7WQvq7NCeplu3-158" value="" style="endArrow=classic;html=1;rounded=0;fontSize=14;entryX=0;entryY=0.75;entryDx=0;entryDy=0;" edge="1" parent="1" target="MQpAyLM7WQvq7NCeplu3-163">
          <mxGeometry width="50" height="50" relative="1" as="geometry">
            <mxPoint x="160" y="1099" as="sourcePoint" />
            <mxPoint x="190" y="1250" as="targetPoint" />
            <Array as="points" />
          </mxGeometry>
        </mxCell>
        <mxCell id="MQpAyLM7WQvq7NCeplu3-159" value="热点数据，读多写少场景数据" style="edgeLabel;html=1;align=center;verticalAlign=middle;resizable=0;points=[];fontSize=14;" vertex="1" connectable="0" parent="MQpAyLM7WQvq7NCeplu3-158">
          <mxGeometry x="0.1074" y="-2" relative="1" as="geometry">
            <mxPoint x="-7" y="-21" as="offset" />
          </mxGeometry>
        </mxCell>
        <mxCell id="MQpAyLM7WQvq7NCeplu3-160" value="" style="endArrow=classic;html=1;rounded=0;fontSize=14;entryX=0;entryY=0.25;entryDx=0;entryDy=0;exitX=0.975;exitY=0.088;exitDx=0;exitDy=0;exitPerimeter=0;" edge="1" parent="1" source="MQpAyLM7WQvq7NCeplu3-48">
          <mxGeometry width="50" height="50" relative="1" as="geometry">
            <mxPoint x="130" y="1300" as="sourcePoint" />
            <mxPoint x="388.7600000000002" y="1162.6875" as="targetPoint" />
            <Array as="points">
              <mxPoint x="170" y="1200" />
              <mxPoint x="170" y="1163" />
            </Array>
          </mxGeometry>
        </mxCell>
        <mxCell id="MQpAyLM7WQvq7NCeplu3-161" value="业务数据读写" style="edgeLabel;html=1;align=center;verticalAlign=middle;resizable=0;points=[];fontSize=14;" vertex="1" connectable="0" parent="MQpAyLM7WQvq7NCeplu3-160">
          <mxGeometry x="-0.1174" y="1" relative="1" as="geometry">
            <mxPoint x="16" y="-12" as="offset" />
          </mxGeometry>
        </mxCell>
        <mxCell id="MQpAyLM7WQvq7NCeplu3-163" value="Redis" style="text;html=1;strokeColor=none;fillColor=none;align=center;verticalAlign=middle;whiteSpace=wrap;rounded=0;fontSize=14;" vertex="1" parent="1">
          <mxGeometry x="390" y="1076" width="60" height="30" as="geometry" />
        </mxCell>
        <mxCell id="MQpAyLM7WQvq7NCeplu3-166" value="HU" style="text;html=1;strokeColor=none;fillColor=none;align=center;verticalAlign=middle;whiteSpace=wrap;rounded=0;fontSize=14;" vertex="1" parent="1">
          <mxGeometry x="-330" y="1258" width="60" height="30" as="geometry" />
        </mxCell>
        <mxCell id="MQpAyLM7WQvq7NCeplu3-167" value="" style="endArrow=classic;html=1;rounded=0;fontSize=14;entryX=1;entryY=0.5;entryDx=0;entryDy=0;entryPerimeter=0;startArrow=none;exitX=0.601;exitY=1;exitDx=0;exitDy=0;exitPerimeter=0;" edge="1" parent="1" target="MQpAyLM7WQvq7NCeplu3-7">
          <mxGeometry width="50" height="50" relative="1" as="geometry">
            <mxPoint x="502.9500000000003" y="1310" as="sourcePoint" />
            <mxPoint x="-200" y="1240" as="targetPoint" />
            <Array as="points">
              <mxPoint x="503" y="1410" />
              <mxPoint x="-250" y="1410" />
              <mxPoint x="-250" y="1241" />
            </Array>
          </mxGeometry>
        </mxCell>
        <mxCell id="MQpAyLM7WQvq7NCeplu3-169" value="" style="outlineConnect=0;dashed=0;verticalLabelPosition=bottom;verticalAlign=top;align=center;html=1;shape=mxgraph.aws3.mqtt_protocol;fillColor=#5294CF;gradientColor=none;fontSize=14;strokeColor=#33FFFF;" vertex="1" parent="1">
          <mxGeometry x="393.9" y="1257" width="45.5" height="28" as="geometry" />
        </mxCell>
        <mxCell id="MQpAyLM7WQvq7NCeplu3-170" value="" style="outlineConnect=0;dashed=0;verticalLabelPosition=bottom;verticalAlign=top;align=center;html=1;shape=mxgraph.aws3.mqtt_protocol;fillColor=#5294CF;gradientColor=none;fontSize=14;strokeColor=#33FFFF;" vertex="1" parent="1">
          <mxGeometry x="523.5" y="1540" width="60" height="48" as="geometry" />
        </mxCell>
        <mxCell id="MQpAyLM7WQvq7NCeplu3-171" value="" style="rounded=0;whiteSpace=wrap;html=1;fontSize=14;strokeColor=#33FFFF;fillColor=#97D077;" vertex="1" parent="1">
          <mxGeometry x="390" y="1020.5" width="180" height="49.5" as="geometry" />
        </mxCell>
        <mxCell id="MQpAyLM7WQvq7NCeplu3-172" value="Nacos" style="text;html=1;strokeColor=none;fillColor=none;align=center;verticalAlign=middle;whiteSpace=wrap;rounded=0;fontSize=14;" vertex="1" parent="1">
          <mxGeometry x="390" y="900" width="60" height="30" as="geometry" />
        </mxCell>
        <mxCell id="MQpAyLM7WQvq7NCeplu3-174" value="" style="sketch=0;points=[[0,0,0],[0.25,0,0],[0.5,0,0],[0.75,0,0],[1,0,0],[0,1,0],[0.25,1,0],[0.5,1,0],[0.75,1,0],[1,1,0],[0,0.25,0],[0,0.5,0],[0,0.75,0],[1,0.25,0],[1,0.5,0],[1,0.75,0]];outlineConnect=0;fontColor=#232F3E;gradientColor=#4AB29A;gradientDirection=north;fillColor=#116D5B;strokeColor=#ffffff;dashed=0;verticalLabelPosition=bottom;verticalAlign=top;align=center;html=1;fontSize=12;fontStyle=0;aspect=fixed;shape=mxgraph.aws4.resourceIcon;resIcon=mxgraph.aws4.forecast;" vertex="1" parent="1">
          <mxGeometry x="461.03" y="1031.1200000000001" width="28.25" height="28.25" as="geometry" />
        </mxCell>
        <mxCell id="MQpAyLM7WQvq7NCeplu3-176" value="agent" style="sketch=0;points=[[0,0,0],[0.25,0,0],[0.5,0,0],[0.75,0,0],[1,0,0],[0,1,0],[0.25,1,0],[0.5,1,0],[0.75,1,0],[1,1,0],[0,0.25,0],[0,0.5,0],[0,0.75,0],[1,0.25,0],[1,0.5,0],[1,0.75,0]];outlineConnect=0;fontColor=#232F3E;gradientColor=#F78E04;gradientDirection=north;fillColor=#D05C17;strokeColor=#ffffff;dashed=0;verticalLabelPosition=bottom;verticalAlign=top;align=center;html=1;fontSize=12;fontStyle=0;aspect=fixed;shape=mxgraph.aws4.resourceIcon;resIcon=mxgraph.aws4.compute;" vertex="1" parent="1">
          <mxGeometry x="110" y="1002.5" width="18" height="18" as="geometry" />
        </mxCell>
        <mxCell id="MQpAyLM7WQvq7NCeplu3-177" value="" style="endArrow=classic;html=1;rounded=0;fontSize=14;" edge="1" parent="1">
          <mxGeometry width="50" height="50" relative="1" as="geometry">
            <mxPoint x="160" y="1030" as="sourcePoint" />
            <mxPoint x="390" y="1030" as="targetPoint" />
            <Array as="points" />
          </mxGeometry>
        </mxCell>
        <mxCell id="MQpAyLM7WQvq7NCeplu3-178" value="请求链路信息搜集" style="edgeLabel;html=1;align=center;verticalAlign=middle;resizable=0;points=[];fontSize=14;" vertex="1" connectable="0" parent="MQpAyLM7WQvq7NCeplu3-177">
          <mxGeometry x="-0.0938" y="-1" relative="1" as="geometry">
            <mxPoint x="17" y="-12" as="offset" />
          </mxGeometry>
        </mxCell>
        <mxCell id="MQpAyLM7WQvq7NCeplu3-183" style="edgeStyle=none;rounded=0;orthogonalLoop=1;jettySize=auto;html=1;exitX=0.5;exitY=0;exitDx=0;exitDy=0;exitPerimeter=0;fontSize=14;" edge="1" parent="1" source="MQpAyLM7WQvq7NCeplu3-37" target="MQpAyLM7WQvq7NCeplu3-37">
          <mxGeometry relative="1" as="geometry" />
        </mxCell>
        <mxCell id="MQpAyLM7WQvq7NCeplu3-185" value="" style="endArrow=classic;html=1;rounded=0;fontSize=14;entryX=0;entryY=0.25;entryDx=0;entryDy=0;exitX=1;exitY=0.5;exitDx=0;exitDy=0;" edge="1" parent="1" source="MQpAyLM7WQvq7NCeplu3-45" target="MQpAyLM7WQvq7NCeplu3-221">
          <mxGeometry width="50" height="50" relative="1" as="geometry">
            <mxPoint x="120" y="1260" as="sourcePoint" />
            <mxPoint x="388.7600000000002" y="1274.7767758961952" as="targetPoint" />
          </mxGeometry>
        </mxCell>
        <mxCell id="MQpAyLM7WQvq7NCeplu3-197" value="消息推送" style="edgeLabel;html=1;align=center;verticalAlign=middle;resizable=0;points=[];fontSize=14;" vertex="1" connectable="0" parent="MQpAyLM7WQvq7NCeplu3-185">
          <mxGeometry x="0.1709" y="-1" relative="1" as="geometry">
            <mxPoint y="-13" as="offset" />
          </mxGeometry>
        </mxCell>
        <mxCell id="MQpAyLM7WQvq7NCeplu3-186" value="" style="rounded=0;whiteSpace=wrap;html=1;fontSize=14;strokeColor=#FFFFFF;fillColor=#FFFFFF;" vertex="1" parent="1">
          <mxGeometry x="830" y="1272" width="200" height="127" as="geometry" />
        </mxCell>
        <mxCell id="MQpAyLM7WQvq7NCeplu3-187" value="" style="rounded=0;whiteSpace=wrap;html=1;fontSize=14;strokeColor=#FFFFFF;fillColor=#FFFFFF;" vertex="1" parent="1">
          <mxGeometry x="830" y="1444" width="200" height="127" as="geometry" />
        </mxCell>
        <mxCell id="MQpAyLM7WQvq7NCeplu3-188" value="" style="rounded=0;whiteSpace=wrap;html=1;fontSize=14;strokeColor=#FFFFFF;fillColor=#FFFFFF;" vertex="1" parent="1">
          <mxGeometry x="835" y="1077.5" width="200" height="127" as="geometry" />
        </mxCell>
        <mxCell id="MQpAyLM7WQvq7NCeplu3-191" value="" style="outlineConnect=0;dashed=0;verticalLabelPosition=bottom;verticalAlign=top;align=center;html=1;shape=mxgraph.aws3.worker;fillColor=#D9A741;gradientColor=none;fontSize=14;strokeColor=#FFFFFF;direction=south;" vertex="1" parent="1">
          <mxGeometry x="64.75999999999999" y="1092.75" width="40.25" height="27.25" as="geometry" />
        </mxCell>
        <mxCell id="MQpAyLM7WQvq7NCeplu3-192" value="" style="endArrow=none;html=1;rounded=0;fontSize=14;" edge="1" parent="1" source="MQpAyLM7WQvq7NCeplu3-52" target="MQpAyLM7WQvq7NCeplu3-191">
          <mxGeometry width="50" height="50" relative="1" as="geometry">
            <mxPoint x="84.51599326599307" y="1010" as="sourcePoint" />
            <mxPoint x="83.00505050505035" y="1189.5" as="targetPoint" />
            <Array as="points" />
          </mxGeometry>
        </mxCell>
        <mxCell id="MQpAyLM7WQvq7NCeplu3-193" value="rpc" style="edgeLabel;html=1;align=center;verticalAlign=middle;resizable=0;points=[];fontSize=14;" vertex="1" connectable="0" parent="MQpAyLM7WQvq7NCeplu3-192">
          <mxGeometry x="-0.3092" relative="1" as="geometry">
            <mxPoint x="-4" y="109" as="offset" />
          </mxGeometry>
        </mxCell>
        <mxCell id="MQpAyLM7WQvq7NCeplu3-195" value="OpenFeign" style="edgeLabel;html=1;align=center;verticalAlign=middle;resizable=0;points=[];fontSize=14;" vertex="1" connectable="0" parent="MQpAyLM7WQvq7NCeplu3-192">
          <mxGeometry x="0.3775" relative="1" as="geometry">
            <mxPoint as="offset" />
          </mxGeometry>
        </mxCell>
        <mxCell id="MQpAyLM7WQvq7NCeplu3-206" value="skywalk" style="text;html=1;strokeColor=none;fillColor=none;align=center;verticalAlign=middle;whiteSpace=wrap;rounded=0;fontSize=14;" vertex="1" parent="1">
          <mxGeometry x="396.5" y="1031.75" width="56.5" height="10" as="geometry" />
        </mxCell>
        <mxCell id="MQpAyLM7WQvq7NCeplu3-209" value="" style="outlineConnect=0;dashed=0;verticalLabelPosition=bottom;verticalAlign=top;align=center;html=1;shape=mxgraph.aws3.mqtt_protocol;fillColor=#5294CF;gradientColor=none;fontSize=14;strokeColor=#33FFFF;" vertex="1" parent="1">
          <mxGeometry x="520" y="1257" width="42.75" height="31" as="geometry" />
        </mxCell>
        <mxCell id="MQpAyLM7WQvq7NCeplu3-210" value="" style="sketch=0;aspect=fixed;html=1;points=[];align=center;image;fontSize=12;image=img/lib/mscae/Cache_Redis_Product.svg;" vertex="1" parent="1">
          <mxGeometry x="403.78" y="1111.88" width="32.44" height="27.25" as="geometry" />
        </mxCell>
        <mxCell id="MQpAyLM7WQvq7NCeplu3-211" value="" style="sketch=0;points=[[0,0,0],[0.25,0,0],[0.5,0,0],[0.75,0,0],[1,0,0],[0,1,0],[0.25,1,0],[0.5,1,0],[0.75,1,0],[1,1,0],[0,0.25,0],[0,0.5,0],[0,0.75,0],[1,0.25,0],[1,0.5,0],[1,0.75,0]];outlineConnect=0;fontColor=#232F3E;gradientColor=#4AB29A;gradientDirection=north;fillColor=#116D5B;strokeColor=#ffffff;dashed=0;verticalLabelPosition=bottom;verticalAlign=top;align=center;html=1;fontSize=12;fontStyle=0;aspect=fixed;shape=mxgraph.aws4.resourceIcon;resIcon=mxgraph.aws4.application_discovery_service;" vertex="1" parent="1">
          <mxGeometry x="419" y="924.5" width="32.5" height="32.5" as="geometry" />
        </mxCell>
        <mxCell id="MQpAyLM7WQvq7NCeplu3-212" value="" style="sketch=0;points=[[0,0,0],[0.25,0,0],[0.5,0,0],[0.75,0,0],[1,0,0],[0,1,0],[0.25,1,0],[0.5,1,0],[0.75,1,0],[1,1,0],[0,0.25,0],[0,0.5,0],[0,0.75,0],[1,0.25,0],[1,0.5,0],[1,0.75,0]];outlineConnect=0;fontColor=#232F3E;gradientColor=#4AB29A;gradientDirection=north;fillColor=#116D5B;strokeColor=#ffffff;dashed=0;verticalLabelPosition=bottom;verticalAlign=top;align=center;html=1;fontSize=12;fontStyle=0;aspect=fixed;shape=mxgraph.aws4.resourceIcon;resIcon=mxgraph.aws4.application_discovery_service;" vertex="1" parent="1">
          <mxGeometry x="458.9" y="901.5" width="32.5" height="32.5" as="geometry" />
        </mxCell>
        <mxCell id="MQpAyLM7WQvq7NCeplu3-213" value="" style="sketch=0;aspect=fixed;html=1;points=[];align=center;image;fontSize=12;image=img/lib/mscae/Kubernetes.svg;" vertex="1" parent="1">
          <mxGeometry x="62.92" y="1328" width="33.33" height="32" as="geometry" />
        </mxCell>
        <mxCell id="MQpAyLM7WQvq7NCeplu3-214" value="" style="sketch=0;aspect=fixed;html=1;points=[];align=center;image;fontSize=12;image=img/lib/mscae/Kubernetes.svg;" vertex="1" parent="1">
          <mxGeometry x="122.25" y="1328" width="33.33" height="32" as="geometry" />
        </mxCell>
      </root>
    </mxGraphModel>
  </diagram>
</mxfile>
